<svg xmlns="http://www.w3.org/2000/svg" width="580" height="400"><g><title>background</title><rect id="canvas_background" width="582" height="402" x="-1" y="-1" fill="#fff"/><g id="canvasGrid" width="100%" height="100%" x="0" y="0" display="none"><rect width="100%" height="100%" x="0" y="0" fill="url(#gridpattern)" stroke-width="0"/></g></g><g><title>Layer 1</title><text id="svg_1" x="149.972" y="231.514" fill="#000" stroke="#000" stroke-width="0" font-family="'Trebuchet MS', Gadget, sans-serif" font-size="24" text-anchor="start" transform="matrix(1.4405049875164952,0,0,2.339365765548223,-94.17920095313642,-227.7268498724811)" xml:space="preserve">YOU ARE AWESOME!</text><path id="svg_2" fill="#000" stroke="#000" stroke-width="1.5" d="m167.34708,248.86545l39.75016,-157.99027l132.50053,0l39.75014,157.99027l-212.00083,0z" transform="rotate(-179.9493865966797 273.34747314453125,169.8703155517578)"/><path id="svg_3" fill="#444" stroke="#000" stroke-opacity="null" stroke-width="1.5" d="m204,151.80506l18.48912,-34.11013l32.02175,-19.69494l36.97825,0l32.02175,19.69494l18.48912,34.11013l0,39.38988l-18.48912,34.11013l-32.02175,19.69493l-36.97825,0l-32.02175,-19.69493l-18.48912,-34.11013l0,-39.38988z"/><path id="svg_4" fill="#666" stroke="#000" stroke-opacity="null" stroke-width="1.5" d="m219.4575,153.64853l14.06781,-24.59642l24.36437,-14.20179l28.13563,0l24.36437,14.20179l14.06781,24.59642l0,28.40359l-14.06781,24.59642l-24.36437,14.20179l-28.13563,0l-24.36437,-14.20179l-14.06781,-24.59642l0,-28.40359z"/><path id="svg_5" fill="#999" stroke="#000" stroke-opacity="null" stroke-width="1.5" d="m232.3625,157.05379l10.71833,-16.707l18.56334,-9.6465l21.43667,0l18.56334,9.6465l10.71833,16.707l0,19.293l-10.71833,16.707l-18.56334,9.6465l-21.43667,0l-18.56334,-9.6465l-10.71833,-16.707l0,-19.293z"/><path id="svg_6" fill="#DDD" stroke="#000" stroke-opacity="null" stroke-width="1.5" d="m243.3875,159.11757l7.77079,-14.15454l13.45841,-8.17273l15.54158,0l13.45841,8.17273l7.77079,14.15454l0,16.34546l-7.77079,14.15454l-13.45841,8.17273l-15.54158,0l-13.45841,-8.17273l-7.77079,-14.15454l0,-16.34546z"/><path id="svg_7" fill="#fff" stroke="#000" stroke-opacity="null" stroke-width="1.5" d="m251.7375,161.01125l5.49315,-10.44188l9.51371,-6.02906l10.98629,0l9.51371,6.02906l5.49314,10.44188l0,12.05813l-5.49314,10.44188l-9.51371,6.02906l-10.98629,0l-9.51371,-6.02906l-5.49315,-10.44188l0,-12.05813z"/><path id="svg_8" fill="#000" stroke="#000" stroke-opacity="null" stroke-width="1.5" d="m241.49747,58.33036l62,0m-62,0l31.00009,-33.00005l30.99993,33.00005l-30.99993,32.99996l-31.00009,-32.99996z"/><path id="svg_9" fill="#000" stroke="#000" stroke-opacity="null" stroke-width="1.5" d="m359.49747,169.33036l62.00001,0m-62.00001,0l31.00009,-33.00005l30.99993,33.00005l-30.99993,32.99996l-31.00009,-32.99996z"/><path id="svg_10" fill="#000" stroke="#000" stroke-opacity="null" stroke-width="1.5" d="m127.49747,172.33036l62.00001,0m-62.00001,0l31.00009,-33.00005l30.99993,33.00005l-30.99993,32.99996l-31.00009,-32.99996z"/><path id="svg_11" fill="#000" stroke="#000" stroke-opacity="null" stroke-width="1.5" d="m168.49747,95.33036l62.00001,0m-62.00001,0l31.00009,-33.00005l30.99993,33.00005l-30.99993,32.99996l-31.00009,-32.99996z"/><path id="svg_12" fill="#000" stroke="#000" stroke-opacity="null" stroke-width="1.5" d="m314.49747,92.33036l62.00001,0m-62.00001,0l31.00009,-33.00005l30.99993,33.00005l-30.99993,32.99996l-31.00009,-32.99996z"/><path id="svg_13" fill="#000" stroke="#000" stroke-opacity="null" stroke-width="1.5" d="m70.49747,173.33036l62.00001,0m-62.00001,0l31.00009,-33.00005l30.99993,33.00005l-30.99993,32.99996l-31.00009,-32.99996z"/><path id="svg_14" fill="#000" stroke="#000" stroke-opacity="null" stroke-width="1.5" d="m418.49747,169.33036l62.00001,0m-62.00001,0l31.00009,-33.00005l30.99993,33.00005l-30.99993,32.99996l-31.00009,-32.99996z"/><path id="svg_15" fill="#000" stroke="#000" stroke-opacity="null" stroke-width="1.5" d="m99.49747,209.33036l62.00001,0m-62.00001,0l31.00009,-33.00005l30.99993,33.00005l-30.99993,32.99996l-31.00009,-32.99996z"/><path id="svg_16" fill="#000" stroke="#000" stroke-opacity="null" stroke-width="1.5" d="m389.49747,205.33036l62.00001,0m-62.00001,0l31.00009,-33.00005l30.99993,33.00005l-30.99993,32.99996l-31.00009,-32.99996z"/><path id="svg_17" fill="#000" stroke="#000" stroke-opacity="null" stroke-width="1.5" d="m97.49747,136.33036l62.00001,0m-62.00001,0l31.00009,-33.00005l30.99993,33.00005l-30.99993,32.99996l-31.00009,-32.99996z"/><path id="svg_18" fill="#000" stroke="#000" stroke-opacity="null" stroke-width="1.5" d="m392.49747,138.33036l62.00001,0m-62.00001,0l31.00009,-33.00005l30.99993,33.00005l-30.99993,32.99996l-31.00009,-32.99996z"/></g></svg>